<svg width="17" height="17" viewBox="0 0 17 17" fill="none" xmlns="http://www.w3.org/2000/svg">
<path d="M6.2699 15.628C6.64892 15.2468 6.9391 14.7866 7.11974 14.2803C7.30038 13.774 7.36702 13.234 7.3149 12.699L7.33389 12.717C7.28069 12.087 7.36565 11.4529 7.58286 10.8591C7.80007 10.2653 8.1443 9.72606 8.5915 9.27906C9.0387 8.83208 9.578 8.48809 10.1719 8.27114C10.7658 8.05418 11.3999 7.96948 12.0299 8.02296L12.0109 8.00496C12.7641 8.07553 13.5208 7.91204 14.1777 7.5368C14.8346 7.16157 15.3597 6.59284 15.6816 5.90819C16.0034 5.22353 16.1062 4.45628 15.976 3.71105C15.8458 2.96582 15.4888 2.2789 14.9539 1.74396C14.419 1.20902 13.732 0.852103 12.9868 0.721883C12.2416 0.591653 11.4743 0.694473 10.7897 1.01629C10.105 1.33811 9.5363 1.86328 9.1611 2.52018C8.7858 3.17708 8.6223 3.93374 8.6929 4.68696L8.6749 4.66896C8.7281 5.29881 8.6431 5.93268 8.426 6.52632C8.2089 7.11996 7.86492 7.65907 7.41796 8.10603C6.97101 8.55299 6.43189 8.89702 5.83825 9.11406C5.24461 9.33116 4.61075 9.41616 3.9809 9.36296L3.9989 9.38096C3.38347 9.32576 2.76406 9.42686 2.19808 9.67476C1.6321 9.92266 1.13785 10.3095 0.761139 10.7993C0.384429 11.289 0.137449 11.866 0.0430689 12.4766C-0.0513011 13.0873 0.0099889 13.7119 0.221259 14.2925C0.432529 14.8732 0.786959 15.3911 1.25169 15.7983C1.71642 16.2056 2.27642 16.4889 2.8798 16.6221C3.48317 16.7552 4.1104 16.7339 4.70337 16.5602C5.29633 16.3864 5.83583 16.0658 6.27189 15.628H6.2699Z" fill="#292929"/>
</svg>
